<?xml version="1.0" standalone="no"?>
<!DOCTYPE svg PUBLIC "-//W3C//DTD SVG 20010904//EN"
 "http://www.w3.org/TR/2001/REC-SVG-20010904/DTD/svg10.dtd">
<svg version="1.0" xmlns="http://www.w3.org/2000/svg"
 width="260.000000pt" height="260.000000pt" viewBox="0 0 260.000000 260.000000"
 preserveAspectRatio="xMidYMid meet">
<metadata>
Created by potrace 1.14, written by Peter Selinger 2001-2017
</metadata>
<g transform="translate(0.000000,260.000000) scale(0.100000,-0.100000)"
fill="#000000" stroke="none">
<path d="M1550 2561 c0 -4 -16 -7 -35 -6 -19 1 -35 -2 -35 -6 0 -5 -7 -5 -17
-2 -11 4 -14 3 -9 -5 5 -8 2 -10 -8 -6 -9 3 -16 1 -16 -5 0 -6 -3 -10 -7 -9
-18 3 -50 -19 -94 -64 -26 -26 -51 -48 -57 -48 -6 0 -13 -6 -15 -12 -4 -10 -6
-10 -6 0 -1 6 -6 12 -12 12 -5 0 -8 -4 -5 -8 3 -5 -1 -9 -9 -9 -8 0 -12 4 -10
8 6 9 -16 6 -32 -4 -7 -5 -13 -4 -13 1 0 5 -7 9 -15 9 -8 0 -12 -4 -9 -9 4 -7
-25 -11 -52 -7 -4 0 -11 -5 -15 -13 -7 -10 -9 -10 -9 2 -1 13 -2 13 -13 0 -7
-8 -25 -16 -42 -18 -53 -5 -55 -5 -55 -14 0 -5 -4 -6 -10 -3 -5 3 -21 -1 -34
-10 -14 -9 -26 -16 -28 -15 -9 5 -58 -21 -58 -31 0 -8 -4 -8 -15 1 -12 10 -15
10 -15 -2 0 -12 -13 -17 -58 -20 -7 -1 -11 -7 -8 -13 2 -7 -11 -18 -29 -25
-19 -7 -32 -17 -29 -22 3 -4 -2 -8 -10 -8 -9 0 -16 -4 -16 -10 0 -5 -5 -10
-10 -10 -6 0 -20 -9 -32 -20 -12 -10 -25 -17 -30 -14 -4 3 -8 -2 -8 -11 0 -9
-3 -14 -7 -12 -5 3 -17 -5 -28 -16 -12 -11 -14 -17 -5 -13 8 4 6 0 -4 -8 -11
-9 -24 -16 -30 -16 -5 0 -7 -3 -4 -6 9 -8 -55 -73 -66 -66 -5 3 -6 0 -2 -7 8
-13 -18 -44 -28 -33 -4 3 -4 -1 0 -11 3 -10 1 -17 -5 -17 -6 0 -11 -5 -11 -11
0 -7 -10 -20 -22 -30 -11 -11 -17 -19 -12 -19 5 0 2 -4 -5 -9 -9 -6 -23 -5
-35 1 -18 10 -19 9 -8 -4 11 -13 8 -15 -17 -12 -17 2 -33 -1 -36 -6 -4 -6 -11
-8 -16 -5 -5 4 -9 1 -9 -5 0 -6 -5 -8 -12 -4 -6 4 -17 -1 -25 -11 -7 -11 -13
-16 -13 -12 0 5 -6 3 -13 -3 -6 -6 -23 -19 -36 -30 -13 -11 -21 -20 -16 -20 4
0 -4 -12 -18 -26 -15 -15 -24 -30 -21 -35 3 -5 -1 -12 -10 -15 -8 -3 -12 -12
-9 -21 3 -8 0 -19 -8 -24 -12 -7 -12 -9 1 -9 12 0 12 -2 1 -9 -8 -5 -13 -26
-12 -57 2 -87 5 -103 15 -97 5 4 7 -1 3 -11 -4 -10 -1 -19 6 -22 7 -2 13 -13
14 -24 1 -11 9 -27 17 -36 9 -8 16 -20 16 -25 0 -5 4 -9 10 -9 5 0 23 -13 38
-30 16 -16 31 -27 34 -24 3 3 6 -14 6 -38 0 -99 5 -147 15 -141 6 4 8 0 4 -10
-3 -10 -3 -17 2 -17 4 0 7 -13 6 -30 -1 -16 1 -30 5 -30 4 0 7 -6 8 -12 4 -34
9 -55 20 -81 7 -16 12 -33 12 -38 0 -5 5 -9 11 -9 5 0 8 -4 5 -8 -3 -5 4 -23
15 -41 11 -18 18 -36 15 -39 -3 -3 2 -11 12 -18 13 -10 14 -13 3 -14 -11 0 -9
-4 5 -15 10 -8 15 -15 11 -15 -5 0 -2 -7 5 -15 31 -34 36 -43 31 -49 -4 -3 1
-6 10 -6 15 0 22 -11 18 -32 0 -5 6 -8 14 -8 8 0 15 -6 15 -14 0 -16 48 -68
107 -115 24 -18 40 -37 37 -42 -5 -8 9 -13 29 -10 7 1 11 -15 8 -32 -1 -5 3
-6 8 -3 5 4 16 0 24 -8 8 -8 17 -12 21 -9 3 3 8 -2 12 -11 3 -9 10 -13 15 -10
5 3 12 -2 15 -10 3 -9 10 -13 15 -10 5 3 9 -10 9 -28 0 -19 6 -40 13 -47 9
-11 9 -12 0 -7 -16 9 28 -86 58 -125 12 -16 34 -35 48 -42 14 -8 25 -19 23
-26 -2 -8 3 -11 11 -8 8 3 20 0 26 -6 6 -6 11 -7 11 -1 0 5 4 3 9 -4 4 -7 28
-15 52 -17 24 -3 56 -6 71 -8 17 -3 25 0 21 6 -4 6 0 8 11 4 21 -8 68 2 61 13
-2 4 6 6 20 5 13 -2 26 3 29 11 3 8 12 14 20 14 8 0 24 12 36 28 12 15 19 20
15 12 -4 -8 0 -6 9 4 8 10 13 24 9 30 -3 6 -3 8 2 4 4 -4 15 0 24 10 17 18 47
22 69 8 7 -4 15 -1 18 9 5 12 9 13 14 5 6 -9 13 -9 30 0 18 10 21 10 14 -2 -6
-11 -5 -11 9 1 9 7 17 10 17 6 0 -4 6 -2 13 4 8 6 17 8 21 4 4 -4 11 -1 16 7
8 13 10 13 10 1 0 -11 4 -10 16 5 8 10 13 13 9 7 -7 -15 11 -18 20 -4 3 6 14
8 25 6 12 -2 18 0 15 4 -3 5 2 12 11 15 8 3 12 2 9 -4 -3 -6 -1 -10 4 -10 6 0
11 5 11 11 0 5 4 8 9 4 5 -3 13 0 16 6 4 5 13 8 21 5 8 -3 13 0 11 6 -1 5 6
12 17 13 10 2 23 8 29 14 6 6 22 11 35 11 13 0 20 4 17 10 -3 6 1 10 11 10 9
0 39 16 65 35 27 19 53 35 58 35 5 0 16 10 25 22 9 13 14 16 10 8 -3 -8 5 -2
20 14 14 16 26 25 26 21 0 -8 23 16 62 65 11 14 16 19 12 11 -5 -9 -3 -12 4
-7 7 4 12 14 12 22 0 8 7 14 17 14 9 0 13 3 10 6 -4 4 6 18 21 30 15 13 23 24
18 24 -5 0 1 8 12 19 12 10 19 21 15 25 -3 3 -1 6 5 6 6 0 9 7 5 17 -4 10 -2
14 4 10 6 -4 13 0 17 8 3 8 12 15 21 15 8 0 15 6 15 13 0 8 4 7 10 -3 5 -8 10
-10 10 -4 0 7 15 14 33 17 62 10 99 25 91 38 -3 5 1 9 9 9 16 0 77 55 77 70 0
6 5 10 10 10 6 0 9 6 8 13 -2 6 2 11 9 10 7 -2 10 6 8 17 -2 11 0 20 4 20 5 0
7 12 5 26 -1 16 2 24 9 21 15 -6 16 55 2 65 -6 5 -5 8 3 8 9 0 10 5 2 19 -13
26 -13 34 3 26 6 -4 3 1 -7 9 -15 12 -16 16 -5 16 12 0 12 2 -1 10 -8 5 -11
12 -7 16 4 4 -1 13 -11 21 -9 8 -11 11 -4 8 11 -6 11 -3 0 14 -7 12 -16 21
-20 21 -5 0 -8 5 -8 11 0 11 -47 59 -82 83 -14 10 -18 28 -20 95 -1 45 -5 84
-10 87 -4 3 -8 14 -8 25 0 11 -7 34 -17 52 -13 26 -13 30 -1 20 13 -11 12 -5
-2 35 -22 61 -37 100 -55 137 -7 16 -12 32 -9 36 2 4 -3 9 -11 13 -9 3 -12 12
-8 22 4 12 3 15 -5 10 -8 -5 -12 0 -12 13 0 12 -5 21 -11 21 -5 0 -8 4 -5 8 3
5 -4 16 -15 25 -11 10 -17 22 -14 27 3 6 -1 10 -9 10 -8 0 -18 9 -21 20 -3 11
-11 20 -16 20 -5 0 -9 6 -9 14 0 8 -7 17 -16 20 -9 4 -14 9 -11 12 6 7 -17 34
-28 34 -4 0 -24 18 -45 40 -21 22 -44 40 -51 40 -7 0 -10 3 -6 6 8 8 -18 34
-33 34 -6 0 -8 4 -5 10 3 5 0 7 -8 4 -8 -3 -17 2 -20 10 -4 9 -13 16 -22 16
-8 0 -15 5 -15 10 0 6 -5 10 -11 10 -21 0 -34 26 -34 67 0 22 -3 39 -7 36 -7
-4 -12 20 -9 40 0 4 -3 7 -8 7 -5 0 -12 11 -15 25 -4 14 -13 25 -21 25 -8 0
-15 6 -15 13 0 17 -58 70 -69 62 -5 -3 -13 1 -18 9 -4 8 -15 16 -23 18 -8 2
-18 6 -21 10 -3 5 -24 9 -47 10 -23 1 -42 5 -42 10 0 4 -4 8 -10 8 -5 0 -10
-4 -10 -9z m-300 -388 c0 -13 5 -23 11 -23 5 0 8 -4 4 -9 -3 -5 -1 -12 5 -16
6 -4 8 -10 5 -15 -3 -4 2 -10 10 -14 8 -3 15 -12 15 -19 0 -18 64 -84 90 -92
11 -3 20 -11 20 -17 0 -6 3 -9 6 -5 4 3 20 -1 36 -9 16 -8 33 -12 38 -9 5 3
11 2 14 -3 7 -12 116 -6 156 9 19 7 39 12 43 11 5 -1 6 2 2 8 -3 5 1 10 9 10
9 0 16 5 16 12 0 6 3 8 6 5 4 -3 20 8 35 24 16 17 29 26 29 20 0 -6 9 -11 20
-11 10 0 24 -9 30 -20 6 -11 17 -20 25 -20 8 0 15 -7 15 -16 0 -8 4 -13 9 -10
5 3 12 -1 15 -10 3 -9 11 -12 18 -8 7 4 10 4 6 -1 -4 -4 12 -26 35 -48 23 -22
35 -36 27 -32 -8 3 -4 -3 9 -14 13 -12 19 -21 15 -21 -5 0 -1 -6 8 -13 9 -8
18 -20 20 -27 2 -8 13 -25 26 -38 13 -13 21 -29 19 -35 -2 -7 6 -20 17 -30 12
-10 15 -16 9 -12 -7 3 -13 1 -13 -4 0 -6 5 -11 10 -11 6 0 10 -7 10 -15 0 -8
5 -15 10 -15 6 0 10 -11 10 -25 0 -14 6 -28 13 -31 7 -2 12 -19 12 -39 -1 -19
2 -35 6 -35 5 0 6 -7 3 -15 -4 -8 -2 -15 3 -15 5 0 9 -10 8 -22 -1 -13 0 -27
4 -33 12 -20 9 -67 -5 -72 -8 -3 -12 -8 -9 -12 2 -4 -6 -7 -18 -6 -12 1 -31
-5 -41 -14 -16 -13 -18 -13 -12 -1 4 8 -2 5 -13 -8 -11 -13 -29 -24 -40 -25
-11 0 -17 -5 -15 -9 7 -10 -22 -39 -30 -31 -3 4 -6 -1 -6 -11 0 -9 -4 -14 -10
-11 -5 3 -7 0 -4 -8 3 -8 -3 -17 -13 -21 -15 -6 -15 -8 -3 -16 13 -8 12 -10
-3 -10 -10 0 -15 -5 -12 -10 4 -6 2 -16 -3 -23 -5 -7 -8 -20 -7 -29 2 -10 -1
-18 -6 -18 -5 0 -9 -5 -9 -11 0 -6 6 -7 13 -2 6 4 4 -4 -5 -19 -9 -14 -14 -29
-10 -33 11 -11 31 -85 21 -79 -5 3 -6 -2 -3 -10 3 -9 10 -16 16 -16 5 0 6 -4
3 -10 -3 -5 -1 -10 4 -10 6 0 11 -6 11 -13 0 -7 16 -30 35 -52 32 -34 34 -40
20 -55 -8 -9 -15 -21 -15 -26 0 -15 -47 -53 -56 -46 -4 4 -4 2 0 -5 4 -7 -2
-18 -14 -25 -11 -7 -20 -19 -20 -26 0 -7 -4 -10 -10 -7 -5 3 -10 -1 -10 -10 0
-9 -4 -14 -9 -11 -5 3 -11 -1 -15 -9 -3 -8 -12 -15 -21 -15 -8 0 -15 -7 -15
-16 0 -8 -4 -12 -10 -9 -5 3 -10 1 -10 -6 0 -7 -3 -9 -7 -6 -3 4 -12 -1 -20
-11 -9 -11 -12 -12 -7 -2 3 8 -7 -1 -24 -20 -17 -19 -31 -31 -32 -26 0 5 -8 2
-17 -5 -14 -12 -16 -12 -9 1 4 8 0 6 -8 -4 -9 -11 -19 -17 -22 -13 -4 4 -13
-1 -21 -11 -8 -9 -11 -11 -8 -4 6 11 3 11 -16 0 -13 -7 -26 -16 -29 -20 -3 -4
-15 -9 -27 -11 -12 -1 -28 -9 -37 -16 -14 -12 -16 -11 -10 5 5 17 4 17 -8 4
-7 -9 -20 -15 -28 -14 -8 0 -25 -5 -37 -13 -15 -9 -24 -9 -28 -2 -5 7 -13 5
-24 -5 -10 -9 -22 -12 -30 -6 -8 4 -22 7 -31 5 -13 -2 -16 3 -14 21 1 13 -1
24 -5 24 -4 0 -12 15 -19 34 -7 18 -26 47 -42 65 -17 17 -30 35 -30 41 0 5 -8
6 -17 3 -12 -5 -15 -2 -11 8 4 10 -1 15 -15 16 -11 1 -23 7 -27 14 -4 6 -13 8
-19 5 -6 -4 -11 -2 -11 4 0 6 -4 9 -9 5 -5 -3 -12 -1 -16 5 -4 6 -10 8 -14 6
-4 -3 -13 -1 -21 4 -7 4 -24 4 -36 0 -14 -6 -26 -5 -29 0 -4 6 -14 6 -26 -1
-12 -6 -23 -8 -26 -5 -3 3 -12 -1 -19 -9 -8 -7 -21 -12 -31 -11 -18 3 -21 1
-67 -39 -27 -23 -34 -27 -52 -24 -4 0 -11 -5 -15 -13 -7 -10 -9 -10 -9 0 0 7
-5 10 -10 7 -6 -4 -9 -1 -8 6 2 7 -4 13 -12 14 -8 1 -14 6 -12 13 1 7 -5 12
-13 12 -8 0 -20 9 -27 20 -7 11 -16 20 -20 20 -7 0 -35 28 -78 77 -8 10 -14
21 -13 25 2 5 -2 8 -7 8 -6 0 -10 6 -10 13 0 7 -11 25 -25 40 -14 15 -23 27
-20 27 3 0 -3 10 -14 22 -11 11 -18 26 -14 31 3 6 -2 16 -12 24 -11 7 -15 13
-11 13 5 0 3 7 -4 15 -7 8 -9 15 -4 15 5 0 5 4 -1 8 -5 4 -16 18 -23 31 -11
19 -11 22 0 15 11 -6 11 -5 0 8 -7 9 -15 29 -17 44 -4 24 -11 61 -14 72 -1 1
-1 3 0 5 0 1 -4 14 -10 28 -7 19 -6 30 2 39 9 10 9 11 -1 6 -6 -4 -12 -3 -12
1 0 5 6 15 12 22 11 11 10 13 -2 7 -8 -4 -6 0 4 8 18 15 38 20 59 17 4 0 7 3
7 8 0 5 11 12 25 15 14 4 23 11 20 16 -3 6 2 10 12 10 10 0 29 12 43 27 14 15
18 23 10 19 -8 -4 -5 1 8 12 12 11 22 25 22 31 0 6 6 11 13 11 8 0 7 4 -3 10
-13 8 -13 10 2 10 11 0 16 6 13 19 -2 11 3 25 10 31 10 8 11 18 5 35 -5 14 -6
27 -1 29 10 7 2 56 -13 75 -8 11 -8 13 2 7 14 -9 15 -2 3 22 -5 9 -17 34 -27
55 -10 20 -22 37 -27 37 -4 0 -5 5 -2 10 3 6 -1 10 -10 10 -9 0 -13 5 -10 10
3 6 -1 10 -11 10 -14 0 -15 2 -3 17 12 14 12 16 -1 9 -8 -4 -7 -1 4 8 10 8 15
19 11 25 -3 6 1 11 9 11 9 0 16 7 16 15 0 8 5 15 10 15 6 0 10 7 10 15 0 8 4
14 9 13 9 -3 61 48 56 54 -1 2 7 12 18 23 11 11 17 14 13 5 -4 -8 2 -5 13 8
11 13 25 21 31 17 5 -3 10 -2 10 4 0 11 71 57 82 53 5 -1 7 4 5 11 -1 6 4 11
12 9 8 -2 17 2 21 8 3 6 17 13 31 15 13 3 25 9 27 15 2 5 10 10 18 10 8 0 14
6 14 13 0 9 2 9 9 -1 7 -11 9 -11 14 0 2 8 18 14 33 13 16 0 34 5 41 11 6 6
29 10 51 10 22 -1 40 1 40 4 -1 13 5 15 47 15 40 0 45 -2 45 -22z"/>
<path d="M1232 1778 c-7 -7 -12 -9 -12 -5 0 4 -9 3 -20 -3 -15 -8 -20 -8 -20
2 0 10 -3 9 -9 -1 -9 -13 -27 -20 -58 -23 -7 -1 -13 -5 -13 -10 0 -5 -4 -6
-10 -3 -5 3 -17 -3 -27 -15 -10 -11 -23 -20 -29 -20 -13 0 -89 -59 -88 -69 0
-3 -11 -17 -24 -31 -14 -14 -21 -19 -17 -11 5 10 4 12 -4 7 -6 -4 -9 -11 -6
-16 2 -4 -4 -19 -15 -32 -10 -14 -22 -37 -25 -51 -4 -15 -10 -25 -14 -23 -4 3
-8 -3 -9 -12 -1 -9 -4 -26 -6 -37 -2 -11 -5 -24 -5 -28 -1 -5 -4 -6 -9 -3 -10
6 -7 -188 4 -205 5 -8 7 -21 6 -31 -2 -9 2 -19 7 -22 6 -4 7 -14 4 -23 -4 -11
-3 -14 5 -9 11 6 18 -20 13 -47 -1 -5 3 -6 9 -2 8 5 15 -9 8 -17 -1 -2 10 -16
25 -32 15 -16 24 -34 20 -40 -3 -6 -3 -8 1 -4 10 9 55 -34 48 -46 -3 -5 0 -6
6 -2 6 3 14 0 19 -8 4 -8 15 -16 23 -18 18 -4 39 -21 35 -28 -2 -3 6 -7 18 -7
12 -1 23 -7 25 -13 2 -5 15 -10 28 -10 13 0 24 -4 24 -10 0 -5 7 -6 17 -3 10
4 14 2 10 -4 -4 -6 3 -9 18 -7 14 1 28 -2 31 -8 4 -6 10 -5 15 3 7 12 9 12 9
0 0 -11 3 -11 17 0 11 10 14 10 9 2 -9 -16 25 -18 41 -2 6 6 17 8 24 3 17 -10
51 -10 67 0 6 4 12 4 12 0 0 -3 11 1 25 10 14 9 29 15 34 12 4 -3 34 10 65 29
31 18 56 31 56 29 0 -3 12 8 26 23 15 15 31 27 38 25 6 -2 8 0 4 4 -4 4 2 15
14 25 11 11 17 19 12 19 -5 0 -1 5 9 11 9 6 15 14 12 20 -4 5 -2 9 4 9 10 0
37 51 43 80 2 8 6 17 10 20 4 3 9 15 11 25 1 11 6 26 10 33 5 6 5 12 0 12 -4
0 -1 5 7 10 12 8 12 10 -5 10 -17 1 -17 2 -4 10 12 7 15 25 13 85 0 43 -5 80
-10 84 -5 3 -9 17 -9 31 0 14 -7 31 -15 38 -8 8 -10 11 -3 8 16 -8 -16 55 -36
72 -13 11 -13 12 -1 7 9 -4 7 0 -4 9 -10 8 -15 19 -11 25 3 6 -1 11 -10 11 -9
0 -13 5 -10 10 3 6 2 10 -4 10 -13 0 -70 58 -63 65 3 3 -2 5 -10 5 -9 0 -21 7
-28 15 -7 8 -16 12 -21 9 -5 -3 -9 -1 -9 5 0 6 -11 13 -25 17 -14 3 -22 11
-18 17 3 5 2 7 -4 4 -5 -3 -22 1 -37 9 -16 7 -44 14 -63 14 -22 0 -32 4 -27
11 4 7 -1 7 -16 -1 -18 -10 -24 -9 -31 1 -6 10 -11 10 -25 -2 -16 -12 -17 -12
-9 1 8 13 7 13 -8 1 -13 -10 -17 -10 -17 -1 0 9 -4 9 -17 -1 -11 -10 -14 -10
-9 -1 9 15 4 16 -12 0z"/>
<path d="M1310 789 c0 -5 5 -7 10 -4 6 3 10 8 10 11 0 2 -4 4 -10 4 -5 0 -10
-5 -10 -11z"/>
</g>
</svg>
